<svg width="26" height="26" viewBox="0 0 26 26" fill="none" xmlns="http://www.w3.org/2000/svg">
<path fill-rule="evenodd" clip-rule="evenodd" d="M19.9271 6.21787L14.2806 3.79794C13.463 3.44756 12.5376 3.44756 11.7201 3.79793L6.07358 6.21787C5.67526 6.38858 5.41699 6.78024 5.41699 7.21361V12.9042C5.41699 15.0034 6.43077 16.9734 8.13894 18.1935L11.741 20.7664C12.4943 21.3045 13.5063 21.3045 14.2597 20.7664L17.8617 18.1935C19.5699 16.9734 20.5837 15.0034 20.5837 12.9042V7.21361C20.5837 6.78024 20.3254 6.38858 19.9271 6.21787ZM17.0312 10.3742C17.3762 9.94294 17.3063 9.31365 16.875 8.96864C16.4438 8.62363 15.8145 8.69355 15.4695 9.12482L11.8341 13.669L10.4574 12.2924C10.0669 11.9019 9.43374 11.9019 9.04322 12.2924C8.6527 12.6829 8.6527 13.3161 9.04322 13.7066L10.8149 15.4783C11.447 16.1104 12.4884 16.0528 13.0468 15.3547L17.0312 10.3742Z" fill="white"/>
</svg>
