<svg width="24" height="24" viewBox="0 0 24 24" fill="none" xmlns="http://www.w3.org/2000/svg">
<path fill-rule="evenodd" clip-rule="evenodd" d="M9.37526 4.63563C8.63813 6.2573 8.12928 8.48118 8.02167 11H15.9792C15.8716 8.48118 15.3627 6.2573 14.6256 4.63563C13.7513 2.71217 12.7479 2 12.0004 2C11.253 2 10.2496 2.71217 9.37526 4.63563ZM8.07574 2.79955C7.88616 3.12233 7.71235 3.4608 7.55452 3.80802C6.68252 5.72642 6.1285 8.24241 6.02001 11H2.0498C2.41673 7.30433 4.79568 4.20055 8.07574 2.79955ZM15.9251 2.79955C16.1147 3.12233 16.2885 3.4608 16.4463 3.80802C17.3183 5.72642 17.8723 8.24241 17.9808 11H21.9511C21.5841 7.30433 19.2052 4.20055 15.9251 2.79955ZM21.9511 13H17.9808C17.8723 15.7576 17.3183 18.2736 16.4463 20.192C16.2885 20.5392 16.1147 20.8777 15.9251 21.2004C19.2052 19.7995 21.5841 16.6957 21.9511 13ZM11.996 22C11.9975 22 11.999 22 12.0004 22C12.7479 22 13.7513 21.2878 14.6256 19.3644C15.3627 17.7427 15.8716 15.5188 15.9792 13H8.02167C8.12928 15.5188 8.63813 17.7427 9.37526 19.3644C10.2479 21.2841 11.2491 21.9972 11.996 22ZM8.07573 21.2004C4.79567 19.7994 2.41673 16.6957 2.0498 13H6.02001C6.1285 15.7576 6.68252 18.2736 7.55452 20.192C7.71235 20.5392 7.88616 20.8777 8.07573 21.2004Z" fill="white"/>
</svg>
