<svg width="15" height="14" viewBox="0 0 15 14" fill="none" xmlns="http://www.w3.org/2000/svg">
<path d="M12.0019 8.7533L11.567 7.99228C11.2902 7.5078 11.1518 7.26556 11.1518 7C11.1518 6.73444 11.2902 6.4922 11.567 6.00773L11.567 6.00772L12.0019 5.2467C13.2402 3.07966 13.8593 1.99615 13.3765 1.45883C12.8937 0.921507 11.7504 1.4217 9.46377 2.4221L3.18815 5.16768C1.39264 5.95322 0.494891 6.34598 0.494891 7C0.494891 7.65401 1.39264 8.04678 3.18815 8.83231L9.46376 11.5779C11.7504 12.5783 12.8937 13.0785 13.3765 12.5412C13.8593 12.0039 13.2402 10.9203 12.0019 8.7533Z" stroke="black"/>
</svg>
