<svg width="24" height="24" viewBox="0 0 24 24" fill="none" xmlns="http://www.w3.org/2000/svg">
<path d="M20.8642 1.59961H3.13505C2.72783 1.59961 2.33728 1.76138 2.04933 2.04933C1.76138 2.33728 1.59961 2.72783 1.59961 3.13505V20.8642C1.59961 21.2714 1.76138 21.6619 2.04933 21.9499C2.33728 22.2378 2.72783 22.3996 3.13505 22.3996H20.8642C21.2714 22.3996 21.6619 22.2378 21.9499 21.9499C22.2378 21.6619 22.3996 21.2714 22.3996 20.8642V3.13505C22.3996 2.72783 22.2378 2.33728 21.9499 2.04933C21.6619 1.76138 21.2714 1.59961 20.8642 1.59961ZM7.79916 19.3186H4.67194V9.38516H7.79916V19.3186ZM6.23339 8.00861C5.87866 8.00661 5.53247 7.89958 5.23851 7.70102C4.94456 7.50246 4.716 7.22127 4.5817 6.89294C4.4474 6.56461 4.41337 6.20386 4.4839 5.8562C4.55444 5.50855 4.72637 5.18958 4.97801 4.93955C5.22965 4.68952 5.54972 4.51964 5.89781 4.45134C6.24591 4.38304 6.60644 4.41939 6.9339 4.5558C7.26136 4.6922 7.54108 4.92255 7.73775 5.21778C7.93441 5.51301 8.03922 5.85988 8.03894 6.21461C8.04229 6.45211 7.99779 6.68784 7.90809 6.90777C7.81839 7.1277 7.68533 7.32732 7.51684 7.49473C7.34835 7.66215 7.14788 7.79392 6.92738 7.88221C6.70688 7.97049 6.47086 8.01348 6.23339 8.00861ZM19.3258 19.3273H16.2001V13.9005C16.2001 12.3001 15.5197 11.8061 14.6415 11.8061C13.7142 11.8061 12.8042 12.5052 12.8042 13.9409V19.3273H9.67694V9.39239H12.6843V10.7689H12.7247C13.0266 10.1579 14.0839 9.11361 15.6974 9.11361C17.4423 9.11361 19.3273 10.1493 19.3273 13.1826L19.3258 19.3273Z" fill="white"/>
</svg>
